# xmcd
#
# Track frame offsets:
#	150
#	13937
#	24130
#	41962
#	51337
#	66000
#	78525
#	90725
#	105287
#	125100
#	137850
#	154387
#
# Disc length: 2288 seconds
#
# Revision: 1
# Processed by: cddbd v1.5.2PL0 Copyright (c) Steve Scherf et al.
# Submitted via: audiograbber 1.83.01
#
DISCID=a308ee0c
DTITLE=Bob Dylan and The Band - The Basement Tapes [CD 2)
DYEAR=1975
DGENRE=Rock
TTITLE0=Too Much Of Nothing
TTITLE1=Yea! Heavy And A Bottle Of Bread
TTITLE2=Ain't No More Cane
TTITLE3=Crash On The Levee (Down In The Flood)
TTITLE4=Ruben Remus
TTITLE5=Tiny Montgomery
TTITLE6=You Ain't Goin' Nowhere
TTITLE7=Don't Ya Tell Henry
TTITLE8=Nothing Was Delivered
TTITLE9=Open The Door, Homer
TTITLE10=Long Distance Operator
TTITLE11=This Wheel's On Fire
EXTD=
EXTT0=
EXTT1=
EXTT2=
EXTT3=
EXTT4=
EXTT5=
EXTT6=
EXTT7=
EXTT8=
EXTT9=
EXTT10=
EXTT11=
PLAYORDER=
